<svg width="56" height="58" viewBox="0 0 56 58" fill="none" xmlns="http://www.w3.org/2000/svg">
<path d="M23.3735 35.186C19.273 41.7703 15.1726 48.3504 11.0721 54.9347C9.75036 57.1196 7.29263 58.2984 4.93625 57.8984C2.1069 57.4185 -0.0890168 54.7452 -0.000335736 51.592L0.0250017 5.9102C0.164358 3.03062 2.28004 0.614126 5.10094 0.100516C7.8585 -0.404674 10.6456 1.03091 11.8449 3.58633L23.2088 22.8719C18.3567 19.3903 13.5088 15.913 8.65663 12.4314C8.69886 23.4529 8.73686 34.4787 8.77909 45.5002C13.6439 42.0607 18.5087 38.6255 23.3777 35.186H23.3735Z" fill="url(#paint0_linear_0_1)"/>
<path d="M32.6221 35.2074C36.7225 41.7917 40.823 48.3718 44.9234 54.9561C46.2452 57.1411 48.7029 58.3199 51.0593 57.9199C53.8929 57.44 56.0846 54.7667 55.9959 51.6135L55.9748 5.93168C55.8354 3.0521 53.7197 0.63561 50.8988 0.122001C48.1413 -0.383189 45.3541 1.05239 44.1548 3.60781L32.791 22.8934C37.6431 19.4118 42.491 15.9344 47.3431 12.4528C47.3009 23.4744 47.2629 34.5002 47.2207 45.5217C42.3559 42.0822 37.4911 38.6469 32.6221 35.2074Z" fill="url(#paint1_linear_0_1)"/>
<defs>
<linearGradient id="paint0_linear_0_1" x1="25.6918" y1="29.1237" x2="-10.4731" y2="28.8695" gradientUnits="userSpaceOnUse">
<stop stop-color="#B5B5B5"/>
<stop offset="0.25" stop-color="#D1D1D1"/>
<stop offset="0.53" stop-color="#EAEAEA"/>
<stop offset="0.79" stop-color="#F9F9F9"/>
<stop offset="1" stop-color="white"/>
</linearGradient>
<linearGradient id="paint1_linear_0_1" x1="30.3121" y1="29.1494" x2="66.4729" y2="28.8952" gradientUnits="userSpaceOnUse">
<stop stop-color="#B5B5B5"/>
<stop offset="0.25" stop-color="#D1D1D1"/>
<stop offset="0.53" stop-color="#EAEAEA"/>
<stop offset="0.79" stop-color="#F9F9F9"/>
<stop offset="1" stop-color="white"/>
</linearGradient>
</defs>
</svg>
